<?xml version="1.0" encoding="utf-8"?>
<!-- Generator: Adobe Illustrator 15.1.0, SVG Export Plug-In . SVG Version: 6.00 Build 0)  -->
<!DOCTYPE svg PUBLIC "-//W3C//DTD SVG 1.1//EN" "http://www.w3.org/Graphics/SVG/1.1/DTD/svg11.dtd">
<svg version="1.1" id="Layer_1" xmlns="http://www.w3.org/2000/svg" xmlns:xlink="http://www.w3.org/1999/xlink" x="0px" y="0px"
     fill="#fff" width="100px" height="99.997px" viewBox="-0.035 0.148 100 99.997" enable-background="new -0.035 0.148 100 99.997"
	 xml:space="preserve">
<g id="Calque_1" fill="#fff" display="none">
</g>
<g id="Calque_2" fill="#fff">
</g>
<path foreground="#ffffff" d="M50.859,0.191L50.859,0.191L50.859,0.191c-0.104-0.001-0.207-0.01-0.31-0.018c-0.193-0.014-0.387-0.026-0.585-0.026
	c-27.57,0-50,22.429-50,49.998c0,27.571,22.43,49.999,50,49.999c0.194,0,0.386-0.012,0.576-0.026
	c0.104-0.006,0.207-0.016,0.312-0.017c0.002,0,0.005,0,0.009,0c27.075-0.483,49.104-22.894,49.104-49.956
	C99.965,23.08,77.937,0.67,50.859,0.191z M58.19,94.984c0.422-0.465,0.832-0.939,1.242-1.414l0.271-0.312
	c0.215-0.246,0.429-0.492,0.636-0.743c0.476-0.574,0.931-1.164,1.385-1.755l0.266-0.339c0.157-0.198,0.314-0.397,0.465-0.601
	c0.604-0.811,1.208-1.668,1.799-2.547l0.168-0.24c0.604-0.906,1.215-1.874,1.812-2.877c0.118-0.199,0.23-0.401,0.342-0.603
	l0.22-0.39c0.4-0.699,0.762-1.333,1.103-1.978c0.142-0.27,0.275-0.539,0.41-0.812l0.199-0.4c0.307-0.609,0.611-1.219,0.898-1.836
	c0.164-0.354,0.319-0.71,0.475-1.066l0.11-0.251c0.263-0.599,0.523-1.199,0.77-1.806c0.175-0.435,0.341-0.872,0.507-1.311
	c0.252-0.668,0.476-1.271,0.685-1.881c0.163-0.47,0.318-0.944,0.472-1.42c0.194-0.608,0.381-1.22,0.559-1.836
	c0.141-0.479,0.275-0.959,0.402-1.443c0.165-0.622,0.319-1.25,0.465-1.877l0.032-0.135c0.103-0.437,0.203-0.873,0.296-1.312
	c0.136-0.646,0.255-1.294,0.371-1.944l0.062-0.347c0.064-0.358,0.131-0.715,0.188-1.074c0.103-0.654,0.186-1.312,0.27-1.971
	l0.061-0.482c0.04-0.315,0.082-0.63,0.114-0.947c0.079-0.759,0.135-1.525,0.188-2.29l0.031-0.413
	c0.021-0.241,0.041-0.485,0.054-0.729c0.063-1.218,0.094-2.349,0.094-3.458c0-1.827-0.086-3.741-0.256-5.699
	c0.682-0.131,1.354-0.32,2.036-0.569c5.472-2.003,8.332-7.428,7.117-13.5c-0.942-4.706-4.197-8.993-8.712-11.466
	c-2.431-1.333-5.034-2.037-7.529-2.037c-0.505,0-1.018,0.032-1.551,0.098c-0.227-0.393-0.455-0.783-0.689-1.17l-0.446-0.722
	c-0.332-0.537-0.672-1.069-1.02-1.595c-0.173-0.26-0.346-0.52-0.522-0.777c-0.359-0.529-0.729-1.053-1.104-1.572l-0.472-0.651
	c-0.534-0.722-1.08-1.435-1.646-2.134l-0.089-0.106c-0.572-0.704-1.105-1.333-1.648-1.952c0,0-0.781-0.871-0.887-0.987
	C79.707,9.245,95.59,28.032,95.59,50.146C95.59,72.258,79.706,91.044,58.19,94.984z M70.787,23.499
	c-0.062,0.092-0.113,0.19-0.171,0.285c-0.22,0.356-0.419,0.721-0.604,1.097c-0.06,0.121-0.121,0.241-0.177,0.364
	c-0.212,0.466-0.403,0.94-0.562,1.431c-0.002,0.006-0.006,0.012-0.008,0.019c-0.094-0.018-0.189-0.021-0.282-0.034
	c-0.187-0.031-0.371-0.049-0.553-0.053c-0.014,0-0.024-0.003-0.037-0.003c-0.009,0-0.013,0.002-0.021,0.002
	c-0.826-0.009-1.581,0.242-2.189,0.701c-0.028,0.021-0.056,0.044-0.082,0.066c-0.188,0.15-0.365,0.313-0.52,0.501
	c-0.68,0.826-0.938,1.957-0.712,3.107c0.055,0.272,0.136,0.535,0.236,0.791c0.033,0.085,0.082,0.164,0.119,0.246
	c0.078,0.166,0.152,0.331,0.247,0.487c0.058,0.094,0.126,0.177,0.188,0.267c0.096,0.134,0.187,0.271,0.292,0.396
	c0.075,0.088,0.161,0.167,0.241,0.25c0.108,0.112,0.218,0.226,0.337,0.327c0.091,0.079,0.188,0.146,0.284,0.217
	c0.123,0.092,0.244,0.182,0.374,0.263c0.103,0.064,0.21,0.117,0.317,0.173c0.133,0.069,0.267,0.138,0.403,0.195
	c0.113,0.047,0.229,0.083,0.346,0.121c0.142,0.046,0.282,0.088,0.426,0.122c0.121,0.026,0.24,0.045,0.363,0.062
	c0.085,0.012,0.169,0.037,0.256,0.043c0.042,0.126,0.094,0.247,0.138,0.371c0.044,0.121,0.087,0.241,0.135,0.36
	c0.153,0.391,0.318,0.776,0.507,1.148c0.007,0.014,0.013,0.028,0.019,0.041c0.197,0.385,0.417,0.757,0.649,1.121
	c0.064,0.102,0.133,0.201,0.198,0.3c0.192,0.287,0.399,0.566,0.614,0.837c0.061,0.075,0.115,0.153,0.178,0.227
	c0.273,0.33,0.562,0.645,0.865,0.947c0.069,0.07,0.145,0.134,0.217,0.203c0.247,0.237,0.506,0.465,0.772,0.683
	c0.097,0.079,0.19,0.155,0.288,0.232c0.066,0.051,0.129,0.107,0.195,0.158c-0.094,0.011-0.189,0.009-0.283,0.017
	c-0.008,0.001-0.016,0.001-0.021,0.001c-0.252,0.021-0.506,0.046-0.758,0.046c-0.604,0-1.203-0.062-1.799-0.156
	c-5.415-0.851-10.348-5.407-11.446-10.897c-0.583-2.91,0.004-5.619,1.652-7.629c0.733-0.894,1.647-1.593,2.688-2.1
	c0.756-0.369,1.583-0.628,2.463-0.774c0.003,0,0.006,0,0.009-0.001c0.543-0.089,1.104-0.146,1.685-0.146
	c1.527,0,3.121,0.341,4.681,0.994c-0.062,0.057-0.113,0.125-0.174,0.183c-0.301,0.288-0.585,0.588-0.855,0.901
	c-0.076,0.089-0.157,0.173-0.232,0.264C71.361,22.662,71.062,23.072,70.787,23.499z M71.231,31.354
	c0.001,0.078-0.007,0.151-0.017,0.225c-0.002,0.036-0.004,0.071-0.011,0.106c-0.037,0.21-0.115,0.402-0.234,0.568
	c-0.23,0.321-0.605,0.533-1.061,0.595c-0.002,0-0.004,0.001-0.006,0.001s-0.004,0-0.006,0c-0.105,0.016-0.203,0.042-0.238,0.071
	c-1.26,0-2.539-1.072-2.793-2.338c-0.11-0.554-0.009-1.058,0.287-1.418c0.28-0.34,0.72-0.528,1.24-0.528
	c0.077,0,0.154,0.016,0.232,0.023c0.266,0.042,0.558,0.129,0.881,0.286c0,0,0.001,0,0.001,0.001c0.642,0.313,1.158,0.82,1.454,1.393
	c0.008,0.02,0.021,0.037,0.028,0.056c0.091,0.186,0.158,0.377,0.199,0.573c0,0.002,0.001,0.005,0.002,0.008
	C71.217,31.107,71.229,31.233,71.231,31.354z"/>
</svg>
