<?xml version="1.0" encoding="utf-8"?>
<!-- Generator: Adobe Illustrator 15.1.0, SVG Export Plug-In . SVG Version: 6.00 Build 0)  -->
<!DOCTYPE svg PUBLIC "-//W3C//DTD SVG 1.1//EN" "http://www.w3.org/Graphics/SVG/1.1/DTD/svg11.dtd">
<svg version="1.1" id="Layer_1" xmlns="http://www.w3.org/2000/svg" xmlns:xlink="http://www.w3.org/1999/xlink" x="0px" y="0px"
     width="48.336px" height="100px" viewBox="25.832 0 48.336 100" enable-background="new 25.832 0 48.336 100" xml:space="preserve">
  <g>
    <g>
      <path d="M40.541,90.855c0.362,1.285,0.729,2.51,1.091,3.674h16.734c0.362-1.165,0.728-2.389,1.091-3.674H40.541z" style="fill: #999" />
    </g>
    <g>
      <path d="M65.094,67.932c3.115-16.265,4.117-34.58-3.607-50.897H38.511c-7.722,16.316-6.723,34.632-3.606,50.897
	    c-1.655,2.288-9.073,10.48-9.073,10.48L27.189,100h4.43l3.425-14.012l3.729-1.609c0.422,1.574,0.835,3.089,1.244,4.569h19.965
	    c0.407-1.48,0.823-2.997,1.244-4.569l3.729,1.609L68.38,100h4.431l1.357-21.588C74.168,78.412,66.747,70.22,65.094,67.932z
	    M50,29.86c2.665,0.052,4.808,2.178,4.808,4.807c0,2.626-2.143,4.758-4.808,4.809c-2.666-0.051-4.808-2.183-4.808-4.809
	    C45.192,32.038,47.334,29.912,50,29.86z" style="fill: #999"/>
    </g>
    <g id="_x3C_Path_x3E_">
      <path d="M49.974,15.125h0.054h10.483C57.853,10.134,50.23,0,49.975,0c-0.257,0-7.826,10.134-10.483,15.125H49.974z" style="fill: #999" />
    </g>
  </g>
</svg>
